<?xml version="1.0" encoding="utf-8"?>
<!-- Generator: Adobe Illustrator 16.0.0, SVG Export Plug-In . SVG Version: 6.00 Build 0)  -->
<!DOCTYPE svg PUBLIC "-//W3C//DTD SVG 1.1//EN" "http://www.w3.org/Graphics/SVG/1.1/DTD/svg11.dtd">
<svg version="1.1" id="Layer_1" xmlns="http://www.w3.org/2000/svg" xmlns:xlink="http://www.w3.org/1999/xlink" x="0px" y="0px"
	 width="288px" height="144px" viewBox="0 0 288 144" enable-background="new 0 0 288 144" xml:space="preserve">
<g>
	<g>
		<path d="M196.024,20.923c-2.167,0.942-4.601,1.442-7.12,1.442c-2.539,0-4.987-0.507-7.164-1.462
			c-0.73,1.294-2.077,2.104-3.562,2.144c0.477,5.58,5.153,9.96,10.855,9.96c5.701,0,10.377-4.378,10.856-9.957
			C198.057,23.051,196.752,22.2,196.024,20.923z"/>
	</g>
</g>
<g>
	<g>
		<path d="M186.115,99.816c-4,1.664-8.477-0.939-9.046-5.204c-0.205-1.536-1.634-12.252-1.803-13.526l-0.61-0.416
			c0,0-0.049-0.709-0.049,56.648c0,3.69,2.992,6.682,6.682,6.682c3.691,0,6.683-2.991,6.683-6.682V99.045L186.115,99.816z"/>
	</g>
</g>
<g>
	<g>
		<path d="M215.859,48.862c-0.035-6.998-5.758-12.69-12.754-12.69c-2.37,0-20.897,0-23.309,0c1.15,2.766,8.978,21.588,10.215,24.562
			c0.594,1.428,0.596,3.002,0.006,4.432c-0.033,0.078-0.07,0.153-0.105,0.229c3.482,3.232,4.406,8.428,2.225,12.674
			c1.642,3.928,2.682,6.413,4.316,10.324c1.393,3.349-0.199,7.206-3.549,8.599l-2.951,1.228v39.098c0,3.69,2.992,6.682,6.682,6.682
			c3.691,0,6.683-2.991,6.683-6.682c0-3.01,0-76.288,0-88.396c0-0.388,0.313-0.702,0.7-0.703c0.389-0.001,0.703,0.312,0.705,0.699
			c0.082,16.187,0.068,8.662,0.051,33.815c-0.002,3.075,2.488,5.57,5.563,5.571c0.002,0,0.003,0,0.005,0
			c3.072,0,5.565-2.49,5.568-5.563C215.928,57.55,215.941,65.09,215.859,48.862z"/>
	</g>
</g>
<g>
	<g>
		<path d="M186.916,62.021l-18.723-45.02l1.971-0.819c1.243-0.517,1.832-1.944,1.314-3.187s-1.943-1.832-3.188-1.315l-1.97,0.819
			l-1.405-3.38c-0.518-1.244-1.943-1.832-3.188-1.315c-1.243,0.517-1.832,1.944-1.314,3.188l9.33,22.438
			c-0.674-0.729-1.754-1-2.723-0.596c-1.244,0.517-1.832,1.944-1.315,3.187c0.939,2.259,6.625,15.931,7.392,17.776l13.977,9.52
			C187.137,62.892,187.092,62.446,186.916,62.021z"/>
	</g>
</g>
<g>
	<g>
		<path d="M193.357,89.682l-3.574-8.55c-2.883,2.6-7.055,3.485-10.852,2.071l1.461,10.966c0.281,2.105,2.484,3.363,4.436,2.552
			l6.79-2.823C193.263,93.214,194.041,91.326,193.357,89.682z"/>
	</g>
</g>
<g>
	<g>
		<path d="M185.781,68.604l-16.328-11.122l0.76-1.338l-5.412-13.015c-4.296,7.558-4.082,7.182-7.566,13.313
			c-1.434,2.521-0.691,5.72,1.705,7.353l20.572,14.013c2.543,1.731,6.006,1.073,7.736-1.468
			C188.979,73.799,188.322,70.335,185.781,68.604z"/>
	</g>
</g>
<g>
	<g>
		<path d="M202.32,18.672c-0.459-2.473-1.586-8.575-1.586-8.802c0-5.05-5.297-9.143-11.83-9.143c-6.235,0-11.34,3.729-11.794,8.457
			h-0.036l-1.652,9.498c-0.092,0.531,0.316,1.017,0.854,1.017h1.788c0.32,0,0.617-0.178,0.767-0.462l1.585-3.001
			c2.149,1.712,5.157,2.778,8.488,2.778c3.305,0,6.29-1.048,8.436-2.736l1.584,2.963c0.15,0.282,0.445,0.458,0.766,0.458h1.777
			C202.009,19.699,202.42,19.208,202.32,18.672z"/>
	</g>
</g>
</svg>
