<?xml version="1.0" encoding="utf-8"?>
<!-- Generator: Adobe Illustrator 16.0.0, SVG Export Plug-In . SVG Version: 6.00 Build 0)  -->
<!DOCTYPE svg PUBLIC "-//W3C//DTD SVG 1.1//EN" "http://www.w3.org/Graphics/SVG/1.1/DTD/svg11.dtd">
<svg version="1.1" id="Capa_1" xmlns="http://www.w3.org/2000/svg" xmlns:xlink="http://www.w3.org/1999/xlink" x="0px" y="0px"
	 width="288px" height="144px" viewBox="0 0 288 144" enable-background="new 0 0 288 144" xml:space="preserve">
<g>
	<circle fill="#010002" cx="143.768" cy="14.454" r="12.121"/>
	<path fill="#010002" d="M147.99,30.021c-3.021-0.613-6.304-0.586-9.271,0.113c-20.151,2.361-26.694,25.686-24.847,43.47
		c0.801,7.689,12.922,7.77,12.112,0c-0.672-6.48-0.384-16.262,3.061-23.213c0,8.45,0,16.899,0,25.346
		c0,0.299,0.03,0.578,0.043,0.866c-0.008,0.138-0.04,0.253-0.04,0.394c0,20.113-0.035,40.219-0.866,60.315
		c-0.368,8.935,13.484,8.899,13.85,0c0.651-15.751,0.815-31.511,0.853-47.272c0.656,0.043,1.312,0.043,1.968,0.005
		c0.041,15.763,0.199,31.521,0.845,47.268c0.368,8.899,14.222,8.935,13.851,0c-0.832-20.097-0.861-40.202-0.861-60.315
		c0-0.625-0.083-1.191-0.209-1.738c-0.02-8.732-0.354-17.472-0.25-26.199c4.125,6.984,4.502,17.637,3.786,24.54
		c-0.812,7.765,11.312,7.687,12.112,0C176.018,55.446,169.16,31.516,147.99,30.021z"/>
</g>
</svg>
